<?xml version="1.0" encoding="utf-8"?>
<!-- Generator: Adobe Illustrator 16.0.0, SVG Export Plug-In . SVG Version: 6.00 Build 0)  -->
<!DOCTYPE svg PUBLIC "-//W3C//DTD SVG 1.1//EN" "http://www.w3.org/Graphics/SVG/1.1/DTD/svg11.dtd">
<svg version="1.1" xmlns="http://www.w3.org/2000/svg" xmlns:xlink="http://www.w3.org/1999/xlink" x="0px" y="0px" width="612px"
	 height="612px" viewBox="0 0 612 612" enable-background="new 0 0 612 612" xml:space="preserve">
<g id="Layer_2">
	<polygon fill-rule="evenodd" clip-rule="evenodd" fill="#FFFFFF" points="130,430 189.565,418.572 225.667,421.744 261,427.667 
		280.333,434.333 286.333,453.132 274,476.333 264.667,495.015 258.667,512.296 233.333,520 206.667,522.667 153.667,516 
		143,512.296 132.333,503 130,496.667 126.333,483.667 123.333,461.333 123.333,440.333 	"/>
	<path fill-rule="evenodd" clip-rule="evenodd" fill="#FFFFFF" d="M327.333,435L325,448.333V462l5.333,21l9.334,19.667L354.333,516
		l29.334,3h64l20.666-9.876l8.021-10.791l2.979-14l3.667-18v-16.666l-6.646-19.334L464,426l-17.333-4.256l-23.889-3.172H404h-16.667
		L368,423.333l-21.333,5.334c0,0-9.001,2.666-10.334,3.333S327.333,435,327.333,435z"/>
</g>
<g id="Layer_5">
	<path fill-rule="evenodd" clip-rule="evenodd" fill="#CAD8E0" d="M152.571,425.67c-5.88,1.128-25.057,8.184-25.057,8.184
		l-3.128,35.314l4.496,23.532l6.891,13.297l15.895,8.746c0,0,50.799,13.53,20.316,3.561S116.833,455.667,152.571,425.67z"/>
	<path fill-rule="evenodd" clip-rule="evenodd" fill="#CAD8E0" d="M357.571,425.67c-5.88,1.128-25.058,8.184-25.058,8.184
		l-3.128,35.314l4.495,23.532l6.891,13.297l15.895,8.746c0,0,50.8,13.53,20.316,3.561C346.5,508.334,321.834,455.667,357.571,425.67
		z"/>
</g>
<g id="Layer_3">
	<path fill-rule="evenodd" clip-rule="evenodd" fill="#DB8937" d="M202.917,216.882c-44.43,35.39-75.855,79.5-90.047,136.05
		c-0.373-2.305-0.744-4.607-1.119-6.912c-0.381-2.346-0.901-4.678-1.125-7.039c-5.521-58.234,13.082-107.531,55.318-147.821
		c30.881-29.457,66.982-50.365,108.129-61.44c42.471-11.431,84.811-11.592,124.645,10.035c40.232,21.843,57.48,57.527,51.854,103
		c-4.721,38.141-18.725,71.23-50.301,95.003c-17.74,13.355-37.766,21.717-60.846,26.656c9.404-9.924,21.137-16.338,24.262-30.23
		c-33.627,34.027-75.118,50.309-122.556,55.787c9.933-13.574,23.496-23.85,25.245-41.68c-4.221,4.715-8.322,9.547-12.683,14.129
		c-25.751,27.068-58.29,38.859-94.694,41.689c-7.89,0.613-15.838,0.439-23.75,0.809c-5.503,0.26-7.852-1.627-8.129-7.639
		c-1.784-38.781,7.893-74.768,26-108.699c12.097-22.667,26.592-43.634,45.382-61.412c2.597-2.456,4.683-5.452,7.005-8.197
		C204.644,218.274,203.782,217.578,202.917,216.882z"/>
	<path fill-rule="evenodd" clip-rule="evenodd" fill="#DB8937" d="M463.424,207.116c18.074,6.272,31.424,16.635,40.596,32.148
		c11.92,20.16,15.162,42.567,15.672,65.412c0.57,25.562-8.594,76.242-16.783,95.066c-0.783-7.998-1.203-14.869-2.166-21.662
		c-3.283-23.137-11.512-43.846-33.396-55.229c-9.012-4.688-19.828-5.908-30.09-8.78
		C459.869,283.161,466.465,247.082,463.424,207.116z"/>
	<path fill-rule="evenodd" clip-rule="evenodd" fill="#DB8937" d="M508.297,421.02c4.348,16.15,8.258,32.432,13.174,48.406
		c4.561,14.816,9.861,29.438,15.502,43.883c2.562,6.562,6.275,12.811,10.264,18.656c15.332,22.469,34.625,27.248,58.961,15.031
		c1.818-0.912,3.637-1.826,5.611-2.818c2.648,28.727-14.891,53.229-40.717,57.43c-15.91,2.586-31.01-4.643-40.094-19.506
		c-9.225-15.092-13.43-31.955-16.602-49.113C507.562,496.02,506.404,458.689,508.297,421.02z"/>
	<path fill-rule="evenodd" clip-rule="evenodd" fill="#DB8937" d="M99.044,294.543c-2.717,20.407-3.679,39.814,1.918,58.941
		c0.369,1.264,0.36,2.799,1.102,3.77c13.564,17.791,2.816,36.889,4.09,56.174C83.613,396.072,78.988,328.133,99.044,294.543z"/>
	<path fill-rule="evenodd" clip-rule="evenodd" fill="#DB8937" d="M104.777,424.191c-4.35,16.15-8.26,32.43-13.176,48.404
		c-4.56,14.82-9.861,29.439-15.502,43.885c-2.562,6.562-6.274,12.811-10.263,18.656c-15.332,22.469-34.625,27.248-58.96,15.033
		c-1.818-0.914-3.638-1.828-5.611-2.82c-2.65,28.727,14.89,53.229,40.715,57.43c15.911,2.586,31.012-4.641,40.095-19.506
		c9.225-15.092,13.43-31.955,16.601-49.111C105.511,499.191,106.667,461.861,104.777,424.191z"/>
</g>
<g id="Layer_4">
	<path fill-rule="evenodd" clip-rule="evenodd" fill="#C1332F" d="M410.613,524.682c-16.785-0.264-28.467-0.756-41.381-1.209
		c-18.416-0.641-29.631-10.633-36.062-26.918c-4.16-10.527-7.889-21.236-11.561-31.951c-2.688-7.846-9.057-10.102-16.129-10.453
		c-6.979-0.352-13.482,2.465-16.369,9.01c-5.614,12.729-11.355,25.58-15.043,38.93c-3.388,12.264-12.397,17.799-22.443,19.576
		c-31.934,5.648-64.204,5.4-96.213,0c-17.148-2.889-26.833-15.592-30.472-32.539c-2.329-10.852-2.506-23.143-11.838-31.76
		c-1.263-1.164-1.582-3.902-1.498-5.879c0.287-6.795,0.618-13.629,1.669-20.332c0.302-1.93,2.838-4.604,4.767-5.023
		c40.196-8.791,80.731-13.763,121.771-7.279c13.746,2.171,27.154,6.445,40.757,9.58c23.374,5.391,46.179,1.904,68.687-4.894
		c24.098-7.276,48.9-8.955,73.666-7.057c22.301,1.71,44.387,6.102,66.607,9.022c5.896,0.775,8.412,3.328,7.928,9.297
		c-0.34,4.197-0.051,8.447-0.082,12.674c-0.035,4.629-0.637,8.336-3.902,12.746c-3.922,5.297-4.09,13.326-6.064,20.119
		c-2.762,9.51-4.418,19.629-8.898,28.27c-4.568,8.809-15.004,11.547-24.031,13.074C439.184,524.271,427.33,524.484,410.613,524.682z
		 M408.109,518.043c0,0.023,0,0.053,0,0.08c9.225,0,18.518,0.729,27.662-0.139c26.662-2.52,37.432-7.963,42.801-36.984
		c1.285-6.943,2.273-14.039,2.4-21.082c0.348-19.348-8.082-29.35-27.426-32.117c-12.244-1.75-24.625-2.871-36.984-3.412
		c-22.27-0.979-44.328,0.93-65.523,8.363c-14.873,5.219-20.672,14.148-18.523,28.996c1.316,9.094,3.254,18.295,6.443,26.875
		c6.512,17.52,17.643,29.861,38.342,29.453C387.568,517.875,397.84,518.043,408.109,518.043z M198.591,518.965
		c13.381-0.297,20.896-1.076,30.635-1.291c22.545-0.488,32.502-7.221,40.528-28.182c1.699-4.438,3.314-8.906,5.042-13.332
		c9.034-23.156,3.171-39-20.473-45.598c-29.273-8.172-60.669-7.75-90.464-3.82c-7.708,1.016-15.385,3.596-22.602,6.6
		c-6.365,2.648-10.719,7.885-10.302,15.482c0.718,13.104,0.288,26.465,2.812,39.23c4.027,20.363,10.348,25.311,30.77,28.055
		C176.274,517.686,186.101,518.568,198.591,518.965z"/>
	<path fill-rule="evenodd" clip-rule="evenodd" fill="#0B8478" d="M397.26,454.844c16.189,0.438,27.672,12.516,27.518,28.266
		c-0.141,14.215-13.631,28.561-28.75,28.066c-17.369-0.566-29.279-12.236-28.928-29.881
		C367.373,467.736,377.793,453.441,397.26,454.844z M413.59,473.91c-0.086-7.914-1.787-12.609-8.598-13.01
		c-5.109-0.297-11.072,5.008-9.779,9.961c0.936,3.582,4.795,8.453,7.916,8.912C407.527,480.424,413.002,478.223,413.59,473.91z"/>
	<path fill-rule="evenodd" clip-rule="evenodd" fill="#0B8478" d="M247.915,482.93c0.917,16.693-10.815,27.475-30.409,28.447
		c-9.388,0.465-25.533-12.779-25.926-26.51c-0.46-16.076,9.906-29.01,25.02-29.982C236.573,453.604,246.807,462.768,247.915,482.93z
		 M228.776,460.748c-5.035,0.51-8.813,3.215-9.068,9.283c-0.241,5.74,3.33,9.74,8.439,9.246c3.503-0.336,8.338-3.852,9.542-7.08
		C239.488,467.371,233.886,460.949,228.776,460.748z"/>
</g>
<g id="Layer_1">
	<path fill-rule="evenodd" clip-rule="evenodd" fill="#F7941E" d="M202.918,214.434c-44.43,35.39-75.855,79.5-90.047,136.05
		c-0.374-2.305-0.745-4.608-1.119-6.912c-0.38-2.346-0.901-4.678-1.125-7.039c-5.521-58.234,13.082-107.531,55.319-147.821
		c30.881-29.457,66.982-50.365,108.128-61.44c42.471-11.431,84.811-11.592,124.645,10.035c40.232,21.843,57.48,57.527,51.854,103
		c-4.721,38.141-18.725,71.229-50.301,95.004c-17.74,13.355-37.766,21.717-60.846,26.656c9.404-9.924,21.137-16.339,24.262-30.231
		c-33.627,34.028-75.117,50.31-122.556,55.788c9.932-13.574,23.496-23.85,25.246-41.68c-4.221,4.715-8.323,9.546-12.683,14.129
		c-25.75,27.068-58.29,38.859-94.694,41.689c-7.89,0.613-15.838,0.439-23.751,0.809c-5.502,0.26-7.852-1.627-8.128-7.639
		c-1.784-38.782,7.893-74.768,26-108.7c12.096-22.667,26.591-43.634,45.381-61.412c2.596-2.456,4.682-5.452,7.005-8.197
		C204.645,215.827,203.782,215.13,202.918,214.434z"/>
	<path fill-rule="evenodd" clip-rule="evenodd" fill="#EF4136" d="M408.613,523.064c-16.785-0.264-28.467-0.756-41.381-1.209
		c-18.416-0.641-29.631-10.633-36.062-26.918c-4.16-10.527-7.889-21.236-11.561-31.951c-2.688-7.846-9.057-10.102-16.128-10.453
		c-6.979-0.352-13.483,2.465-16.369,9.01c-5.614,12.729-11.355,25.58-15.043,38.93c-3.388,12.264-12.397,17.799-22.443,19.576
		c-31.934,5.648-64.204,5.4-96.213,0c-17.148-2.889-26.833-15.592-30.472-32.539c-2.329-10.852-2.506-23.143-11.838-31.76
		c-1.263-1.164-1.582-3.902-1.498-5.879c0.287-6.795,0.618-13.629,1.669-20.332c0.302-1.93,2.838-4.604,4.767-5.023
		c40.196-8.791,80.731-13.764,121.771-7.279c13.746,2.17,27.154,6.445,40.757,9.58c23.375,5.391,46.179,1.904,68.687-4.895
		c24.098-7.275,48.9-8.955,73.666-7.057c22.301,1.711,44.387,6.102,66.607,9.023c5.896,0.775,8.412,3.328,7.928,9.297
		c-0.34,4.197-0.051,8.447-0.082,12.674c-0.035,4.629-0.637,8.336-3.902,12.746c-3.922,5.297-4.09,13.326-6.064,20.119
		c-2.762,9.51-4.418,19.629-8.898,28.27c-4.568,8.809-15.004,11.547-24.031,13.074C437.184,522.654,425.33,522.867,408.613,523.064z
		 M406.109,516.426c0,0.023,0,0.053,0,0.08c9.225,0,18.518,0.729,27.662-0.139c26.662-2.52,37.432-7.963,42.801-36.984
		c1.285-6.943,2.273-14.039,2.4-21.082c0.348-19.348-8.082-29.35-27.426-32.117c-12.244-1.75-24.625-2.871-36.984-3.412
		c-22.27-0.98-44.328,0.93-65.523,8.363c-14.873,5.219-20.672,14.148-18.523,28.996c1.316,9.094,3.254,18.295,6.443,26.875
		c6.512,17.52,17.643,29.861,38.342,29.453C385.568,516.258,395.84,516.426,406.109,516.426z M196.591,517.348
		c13.381-0.297,20.896-1.076,30.635-1.291c22.545-0.488,32.502-7.221,40.528-28.182c1.699-4.438,3.314-8.906,5.042-13.332
		c9.034-23.156,3.171-39-20.473-45.598c-29.273-8.172-60.669-7.75-90.464-3.82c-7.708,1.016-15.385,3.596-22.602,6.6
		c-6.365,2.648-10.719,7.885-10.302,15.482c0.718,13.104,0.288,26.465,2.812,39.23c4.027,20.363,10.348,25.311,30.77,28.055
		C174.274,516.068,184.101,516.951,196.591,517.348z"/>
	<path fill-rule="evenodd" clip-rule="evenodd" fill="#F7941E" d="M461.291,204.668c18.074,6.272,31.424,16.635,40.596,32.148
		c11.92,20.16,15.162,42.567,15.672,65.412c0.57,25.561-8.594,76.243-16.783,95.067c-0.783-7.998-1.203-14.869-2.166-21.662
		c-3.283-23.138-11.512-43.846-33.396-55.23c-9.012-4.688-19.828-5.908-30.09-8.78C457.736,280.713,464.332,244.634,461.291,204.668
		z"/>
	<path fill-rule="evenodd" clip-rule="evenodd" fill="#F7941E" d="M506.164,418.572c4.348,16.15,8.258,32.432,13.174,48.406
		c4.561,14.816,9.861,29.438,15.502,43.883c2.562,6.562,6.275,12.811,10.264,18.656c15.332,22.469,34.625,27.248,58.961,15.031
		c1.818-0.912,3.637-1.826,5.611-2.818c2.648,28.727-14.891,53.229-40.717,57.43c-15.91,2.586-31.01-4.643-40.094-19.506
		c-9.225-15.092-13.43-31.955-16.602-49.113C505.43,493.572,504.271,456.242,506.164,418.572z"/>
	<path fill-rule="evenodd" clip-rule="evenodd" fill="#F7941E" d="M96.912,292.096c-2.717,20.406-3.678,39.814,1.919,58.941
		c0.369,1.264,0.36,2.798,1.101,3.77c13.564,17.791,2.816,36.889,4.09,56.174C81.48,393.625,76.856,325.685,96.912,292.096z"/>
	<path fill-rule="evenodd" clip-rule="evenodd" fill="#00A79D" d="M395.26,453.227c16.189,0.438,27.672,12.516,27.518,28.266
		c-0.141,14.215-13.631,28.561-28.75,28.066c-17.369-0.566-29.279-12.236-28.928-29.881
		C365.373,466.119,375.793,451.824,395.26,453.227z M411.59,472.293c-0.086-7.914-1.787-12.609-8.598-13.01
		c-5.109-0.297-11.072,5.008-9.779,9.961c0.936,3.582,4.795,8.453,7.916,8.912C405.527,478.807,411.002,476.605,411.59,472.293z"/>
	<path fill-rule="evenodd" clip-rule="evenodd" fill="#00A79D" d="M245.915,481.312c0.917,16.693-10.815,27.475-30.409,28.447
		c-9.388,0.465-25.533-12.779-25.926-26.51c-0.46-16.076,9.906-29.01,25.02-29.982C234.573,451.986,244.807,461.15,245.915,481.312z
		 M226.776,459.131c-5.035,0.51-8.813,3.215-9.068,9.283c-0.241,5.74,3.33,9.74,8.439,9.246c3.503-0.336,8.338-3.852,9.542-7.08
		C237.488,465.754,231.886,459.332,226.776,459.131z"/>
	<path fill-rule="evenodd" clip-rule="evenodd" fill="#F7941E" d="M102.645,421.744c-4.349,16.15-8.26,32.43-13.176,48.404
		c-4.56,14.82-9.861,29.439-15.501,43.885c-2.563,6.562-6.274,12.811-10.264,18.656c-15.332,22.469-34.625,27.248-58.96,15.033
		c-1.818-0.914-3.638-1.828-5.611-2.82c-2.65,28.727,14.89,53.229,40.715,57.43c15.911,2.586,31.012-4.641,40.095-19.506
		c9.225-15.092,13.43-31.955,16.601-49.111C103.378,496.744,104.536,459.414,102.645,421.744z"/>
</g>
</svg>
